<svg width="274" height="27" viewBox="0 0 274 27" fill="none" xmlns="http://www.w3.org/2000/svg">
<path fill-rule="evenodd" clip-rule="evenodd" d="M151.093 0.808809H134.916C132.385 0.808809 130.333 2.8608 130.333 5.39206V21.5682C130.333 24.0995 132.385 26.1515 134.916 26.1515H151.093C153.624 26.1515 155.676 24.0995 155.676 21.5682V5.39206C155.676 2.8608 153.624 0.808809 151.093 0.808809ZM134.916 0C131.939 0 129.524 2.41411 129.524 5.39206V21.5682C129.524 24.5462 131.939 26.9603 134.916 26.9603H151.093C154.071 26.9603 156.485 24.5462 156.485 21.5682V5.39206C156.485 2.41411 154.071 0 151.093 0H134.916Z" fill="white"/>
<path fill-rule="evenodd" clip-rule="evenodd" d="M145.872 7.71418L145.866 7.70654C145.792 7.61894 145.731 7.54588 145.675 7.47812C145.642 7.43792 145.61 7.39958 145.579 7.36116C144.926 6.56203 144.155 5.90578 143.161 5.59093C140.402 4.7273 136.634 5.44678 134.976 8.85575C133.75 11.3758 133.723 14.021 134.487 16.6701C135.183 19.0814 136.668 20.8162 139.199 21.3776C141.804 21.9555 144.034 21.2221 145.772 19.1459C145.911 19.0052 146.057 18.8718 146.21 18.7463V21.5054H151.092V5.79577C150.775 5.79577 150.46 5.79536 150.146 5.79495H150.142C148.889 5.79334 147.661 5.79175 146.434 5.816C146.308 5.816 146.11 6.09797 146.095 6.26235C146.063 6.614 146.067 6.96878 146.073 7.38754V7.38784C146.076 7.56528 146.078 7.7542 146.078 7.95925H146.077C145.998 7.86495 145.931 7.78484 145.872 7.71418ZM139.357 13.3496C139.357 11.4871 140.117 10.2353 141.551 9.74213C144.27 8.80517 146.712 10.7537 146.396 13.6076C146.368 13.8605 146.332 14.1134 146.281 14.3549C145.901 16.2326 144.438 17.3402 142.606 17.1569C140.625 16.9596 139.415 15.6787 139.365 13.7277C139.358 13.6338 139.358 13.5392 139.358 13.4444C139.357 13.4128 139.357 13.3812 139.357 13.3496Z" fill="white"/>
<path fill-rule="evenodd" clip-rule="evenodd" d="M190.801 20.4899C193.102 20.4899 195.225 19.7317 196.935 18.4516C194.766 16.3885 193.414 13.4748 193.414 10.2451C193.414 7.01515 194.766 4.10141 196.935 2.03859C195.225 0.758252 193.102 0 190.801 0C185.143 0 180.556 4.5869 180.556 10.2451C180.556 15.903 185.143 20.4899 190.801 20.4899ZM204.737 0C202.437 0 200.313 0.758252 198.603 2.03859C200.772 4.10141 202.124 7.01515 202.124 10.2451C202.124 13.4748 200.772 16.3885 198.603 18.4516C200.313 19.7317 202.437 20.4899 204.737 20.4899C210.395 20.4899 214.982 15.903 214.982 10.2451C214.982 4.5869 210.395 0 204.737 0ZM201.046 10.2451C201.046 7.2779 199.785 4.60533 197.769 2.73445C195.754 4.60533 194.492 7.2779 194.492 10.2451C194.492 13.212 195.754 15.8846 197.769 17.7555C199.785 15.8846 201.046 13.212 201.046 10.2451Z" fill="#EDEDED"/>
<path d="M186.032 26.8973V25.006C186.032 24.281 185.592 23.8081 184.837 23.8081C184.459 23.8081 184.051 23.9342 183.768 24.344C183.547 23.9973 183.233 23.8081 182.761 23.8081C182.447 23.8081 182.132 23.9027 181.881 24.2494V23.8712H181.22V26.8973H181.881V25.2266C181.881 24.6907 182.164 24.4386 182.604 24.4386C183.044 24.4386 183.264 24.7223 183.264 25.2266V26.8973H183.925V25.2266C183.925 24.6907 184.239 24.4386 184.648 24.4386C185.088 24.4386 185.309 24.7223 185.309 25.2266V26.8973H186.032ZM195.812 23.8712H194.743V22.957H194.083V23.8712H193.485V24.4701H194.083V25.8571C194.083 26.5505 194.366 26.9603 195.121 26.9603C195.404 26.9603 195.718 26.8658 195.938 26.7397L195.749 26.1723C195.561 26.2984 195.341 26.3299 195.183 26.3299C194.869 26.3299 194.743 26.1408 194.743 25.8255V24.4701H195.812V23.8712ZM201.41 23.8081C201.033 23.8081 200.781 23.9973 200.624 24.2494V23.8712H199.964V26.8973H200.624V25.1951C200.624 24.6907 200.844 24.407 201.253 24.407C201.379 24.407 201.536 24.4386 201.662 24.4701L201.851 23.8396C201.725 23.8081 201.536 23.8081 201.41 23.8081ZM192.951 24.1233C192.636 23.9027 192.196 23.8081 191.724 23.8081C190.969 23.8081 190.466 24.1864 190.466 24.7853C190.466 25.2897 190.843 25.5734 191.504 25.6679L191.818 25.6994C192.164 25.7625 192.353 25.8571 192.353 26.0147C192.353 26.2353 192.101 26.3929 191.661 26.3929C191.221 26.3929 190.875 26.2353 190.655 26.0777L190.34 26.5821C190.686 26.8342 191.158 26.9603 191.63 26.9603C192.51 26.9603 193.013 26.5505 193.013 25.9831C193.013 25.4473 192.605 25.1636 191.976 25.069L191.661 25.0375C191.378 25.006 191.158 24.9429 191.158 24.7538C191.158 24.5331 191.378 24.407 191.724 24.407C192.101 24.407 192.479 24.5647 192.668 24.6592L192.951 24.1233ZM210.499 23.8081C210.122 23.8081 209.87 23.9973 209.713 24.2494V23.8712H209.052V26.8973H209.713V25.1951C209.713 24.6907 209.933 24.407 210.342 24.407C210.467 24.407 210.625 24.4386 210.75 24.4701L210.939 23.8396C210.813 23.8081 210.625 23.8081 210.499 23.8081ZM202.071 25.3842C202.071 26.2984 202.7 26.9603 203.675 26.9603C204.115 26.9603 204.429 26.8658 204.744 26.6136L204.429 26.0777C204.178 26.2668 203.926 26.3614 203.643 26.3614C203.108 26.3614 202.731 25.9831 202.731 25.3842C202.731 24.8168 203.108 24.4386 203.643 24.407C203.926 24.407 204.178 24.5016 204.429 24.6907L204.744 24.1549C204.429 23.9027 204.115 23.8081 203.675 23.8081C202.7 23.8081 202.071 24.4701 202.071 25.3842ZM208.172 25.3842V23.8712H207.511V24.2494C207.291 23.9657 206.977 23.8081 206.568 23.8081C205.719 23.8081 205.058 24.4701 205.058 25.3842C205.058 26.2984 205.719 26.9603 206.568 26.9603C207.008 26.9603 207.323 26.8027 207.511 26.519V26.8973H208.172V25.3842ZM205.75 25.3842C205.75 24.8483 206.096 24.407 206.662 24.407C207.197 24.407 207.574 24.8168 207.574 25.3842C207.574 25.9201 207.197 26.3614 206.662 26.3614C206.096 26.3299 205.75 25.9201 205.75 25.3842ZM197.857 23.8081C196.976 23.8081 196.347 24.4386 196.347 25.3842C196.347 26.3299 196.976 26.9603 197.888 26.9603C198.328 26.9603 198.769 26.8342 199.114 26.5505L198.8 26.0777C198.548 26.2668 198.234 26.3929 197.919 26.3929C197.511 26.3929 197.102 26.2038 197.007 25.6679H199.24C199.24 25.5734 199.24 25.5103 199.24 25.4157C199.272 24.4386 198.706 23.8081 197.857 23.8081ZM197.857 24.3755C198.265 24.3755 198.548 24.6277 198.611 25.1005H197.039C197.102 24.6907 197.385 24.3755 197.857 24.3755ZM214.241 25.3842V22.6733H213.581V24.2494C213.361 23.9657 213.046 23.8081 212.637 23.8081C211.788 23.8081 211.128 24.4701 211.128 25.3842C211.128 26.2984 211.788 26.9603 212.637 26.9603C213.078 26.9603 213.392 26.8027 213.581 26.519V26.8973H214.241V25.3842ZM211.82 25.3842C211.82 24.8483 212.166 24.407 212.732 24.407C213.266 24.407 213.644 24.8168 213.644 25.3842C213.644 25.9201 213.266 26.3614 212.732 26.3614C212.166 26.3299 211.82 25.9201 211.82 25.3842ZM189.743 25.3842V23.8712H189.082V24.2494C188.862 23.9657 188.548 23.8081 188.139 23.8081C187.29 23.8081 186.629 24.4701 186.629 25.3842C186.629 26.2984 187.29 26.9603 188.139 26.9603C188.579 26.9603 188.894 26.8027 189.082 26.519V26.8973H189.743V25.3842ZM187.29 25.3842C187.29 24.8483 187.636 24.407 188.202 24.407C188.736 24.407 189.114 24.8168 189.114 25.3842C189.114 25.9201 188.736 26.3614 188.202 26.3614C187.636 26.3299 187.29 25.9201 187.29 25.3842Z" fill="#EDEDED"/>
<path fill-rule="evenodd" clip-rule="evenodd" d="M2.42574 0C1.36218 0 0.5 0.862182 0.5 1.92574V25.0346C0.5 26.0981 1.36218 26.9603 2.42574 26.9603H39.0147C40.0783 26.9603 40.9404 26.0981 40.9404 25.0346V1.92574C40.9404 0.862181 40.0783 0 39.0147 0H2.42574ZM20.4689 19.4827C19.741 19.4827 19.0651 19.396 18.4411 19.2227C17.8172 19.0494 17.2741 18.7952 16.8119 18.4601C16.3498 18.1135 15.9858 17.6975 15.7201 17.2122C15.4659 16.7154 15.3388 16.155 15.3388 15.5311C15.3388 14.9418 15.4601 14.393 15.7027 13.8846C15.9454 13.3646 16.3902 12.9024 17.0373 12.498C16.5982 12.1976 16.2631 11.851 16.032 11.4581C15.8009 11.0537 15.6854 10.5222 15.6854 9.86363C15.6854 9.38989 15.7952 8.95083 16.0147 8.54642C16.2458 8.13046 16.5693 7.77228 16.9853 7.47186C17.4012 7.15989 17.9038 6.91725 18.4931 6.74393C19.0824 6.57062 19.741 6.48396 20.4689 6.48396C21.1968 6.48396 21.8554 6.57062 22.4447 6.74393C23.034 6.91725 23.5308 7.15989 23.9352 7.47186C24.3512 7.77228 24.6689 8.13046 24.8885 8.54642C25.1196 8.95083 25.2351 9.38989 25.2351 9.86363C25.2351 10.5222 25.1196 11.0537 24.8885 11.4581C24.6574 11.851 24.3281 12.1976 23.9006 12.498C24.5476 12.9024 24.9925 13.3646 25.2351 13.8846C25.4778 14.393 25.5991 14.9418 25.5991 15.5311C25.5991 16.155 25.4662 16.7154 25.2004 17.2122C24.9463 17.6975 24.5881 18.1135 24.1259 18.4601C23.6637 18.7952 23.1207 19.0494 22.4967 19.2227C21.8728 19.396 21.1968 19.4827 20.4689 19.4827ZM20.4689 17.3682C20.8271 17.3682 21.1391 17.3162 21.4048 17.2122C21.6821 17.1082 21.9132 16.9696 22.0981 16.7963C22.283 16.6114 22.4216 16.4034 22.514 16.1723C22.618 15.9412 22.67 15.6928 22.67 15.4271C22.67 14.9071 22.4794 14.4681 22.0981 14.1099C21.7283 13.7401 21.1853 13.5553 20.4689 13.5553C19.7525 13.5553 19.2037 13.7401 18.8224 14.1099C18.4527 14.4681 18.2678 14.9071 18.2678 15.4271C18.2678 15.6928 18.314 15.9412 18.4065 16.1723C18.5104 16.4034 18.6549 16.6114 18.8397 16.7963C19.0246 16.9696 19.2499 17.1082 19.5157 17.2122C19.793 17.3162 20.1107 17.3682 20.4689 17.3682ZM20.4689 11.6834C21.116 11.6834 21.6013 11.539 21.9248 11.2502C22.2483 10.9497 22.4101 10.58 22.4101 10.1409C22.4101 9.69031 22.2483 9.32057 21.9248 9.03171C21.6013 8.74285 21.116 8.59842 20.4689 8.59842C19.8219 8.59842 19.3366 8.74285 19.0131 9.03171C18.6895 9.32057 18.5278 9.69031 18.5278 10.1409C18.5278 10.58 18.6895 10.9497 19.0131 11.2502C19.3366 11.539 19.8219 11.6834 20.4689 11.6834ZM10.3986 19.2574V10.8169H7.53885V8.71974C8.0588 8.70818 8.50942 8.66197 8.89072 8.58108C9.28357 8.48865 9.61865 8.36155 9.89595 8.19979C10.1733 8.03803 10.4043 7.83583 10.5892 7.59318C10.7741 7.33899 10.9359 7.03857 11.0745 6.69194H13.241V19.2574H10.3986ZM30.2755 17.3316V14.6356H27.4177V12.7619H30.2755V10.0793H32.365V12.7619H35.2093V14.6356H32.365V17.3316H30.2755Z" fill="white"/>
<path d="M102.137 3.26709H68.3872V6.23403H102.137V3.26709Z" fill="white"/>
<path d="M84.208 9.50881L82.4528 17.671H80.3298L82.0854 9.50881H84.208ZM93.1395 14.7793L94.2568 11.7143L94.8997 14.7793H93.1395ZM95.509 17.671H97.4721L95.7571 9.50881H93.9462C93.5378 9.50881 93.1942 9.7444 93.0419 10.1074L89.8563 17.671H92.0859L92.5284 16.4522H95.2517L95.509 17.671ZM89.967 15.0063C89.9764 12.8524 86.9732 12.7329 86.9933 11.7706C86.9999 11.478 87.2801 11.1663 87.8935 11.0867C88.1975 11.0478 89.0363 11.0164 89.9872 11.4521L90.3591 9.72041C89.8484 9.53683 89.191 9.35986 88.3734 9.35986C86.2747 9.35986 84.7984 10.4687 84.7865 12.0577C84.7729 13.2329 85.8413 13.8881 86.6442 14.2793C87.4721 14.6791 87.7494 14.9363 87.7457 15.2934C87.74 15.8411 87.0851 16.0836 86.476 16.0928C85.4079 16.1094 84.7889 15.8057 84.2955 15.5768L83.9101 17.366C84.4071 17.5923 85.3227 17.789 86.2703 17.7992C88.5014 17.7992 89.9604 16.7034 89.967 15.0063ZM81.1746 9.50881L77.7349 17.671H75.4911L73.7982 11.1571C73.6956 10.7565 73.6063 10.6093 73.2944 10.44C72.7836 10.1642 71.9409 9.90639 71.1997 9.74601L71.2499 9.50881H74.8625C75.3225 9.50881 75.7365 9.81364 75.8418 10.3407L76.736 15.0643L78.9444 9.50881H81.1746Z" fill="white"/>
<path d="M102.138 20.9248H68.3877V23.8921H102.138V20.9248Z" fill="white"/>
<rect x="65.5122" y="0.5" width="39.5" height="26" stroke="white"/>
<path d="M273.659 17.3663V16.95H273.555L273.434 17.2275L273.312 16.95H273.208V17.3663H273.278V17.054L273.399 17.3316H273.486L273.607 17.054V17.3663H273.659ZM272.966 17.3663V17.0193H273.104V16.95H272.757V17.0193H272.896V17.3663H272.966Z" fill="#EDEDED"/>
<path d="M261.324 19.1532H251.938V2.29004H261.324V19.1532Z" fill="#CBCACA"/>
<path d="M252.546 10.7217C252.546 7.30392 254.142 4.2505 256.64 2.29006C254.818 0.850099 252.511 0 250.013 0C244.097 0 239.291 4.80566 239.291 10.7217C239.291 16.6377 244.097 21.4433 250.013 21.4433C252.511 21.4433 254.818 20.5932 256.64 19.1533C254.142 17.1928 252.546 14.1394 252.546 10.7217Z" fill="#8C8C8C"/>
<path d="M273.989 10.7217C273.989 16.6377 269.183 21.4433 263.267 21.4433C260.769 21.4433 258.462 20.5932 256.64 19.1533C259.138 17.1928 260.734 14.1394 260.734 10.7217C260.734 7.30392 259.138 4.2505 256.64 2.29006C258.462 0.850099 260.769 0 263.267 0C269.183 0 273.989 4.80566 273.989 10.7217Z" fill="#EDEDED"/>
<path d="M264.482 23.9243C264.604 23.9243 264.794 23.9416 264.916 23.9937L264.725 24.5835C264.586 24.5315 264.465 24.5142 264.343 24.5142C263.944 24.5142 263.736 24.7744 263.736 25.2428V26.8389H263.112V23.9937H263.719V24.3407C263.892 24.0804 264.135 23.9243 264.482 23.9243ZM262.192 24.5489H261.186V25.8327C261.186 26.1103 261.29 26.3011 261.602 26.3011C261.758 26.3011 261.967 26.249 262.157 26.145L262.331 26.6828C262.14 26.8216 261.828 26.9083 261.55 26.9083C260.822 26.9083 260.561 26.5093 260.561 25.85V24.5489H259.989V23.9763H260.561V23.1089H261.186V23.9763H262.192V24.5489ZM254.264 25.1561C254.333 24.7397 254.576 24.4621 255.027 24.4621C255.426 24.4621 255.686 24.705 255.756 25.1561H254.264ZM256.398 25.4163C256.398 24.5315 255.842 23.9243 255.044 23.9243C254.212 23.9243 253.622 24.5315 253.622 25.4163C253.622 26.3184 254.229 26.9083 255.079 26.9083C255.513 26.9083 255.894 26.8042 256.241 26.5093L255.929 26.0582C255.686 26.249 255.391 26.3531 255.096 26.3531C254.697 26.3531 254.333 26.1623 254.246 25.6592H256.363C256.38 25.5724 256.398 25.503 256.398 25.4163ZM259.121 24.7223C258.948 24.6182 258.601 24.4795 258.237 24.4795C257.89 24.4795 257.699 24.6009 257.699 24.8091C257.699 24.9999 257.907 25.052 258.185 25.0867L258.479 25.1214C259.104 25.2081 259.468 25.4683 259.468 25.9715C259.468 26.5093 259 26.9083 258.167 26.9083C257.699 26.9083 257.265 26.7869 256.935 26.544L257.23 26.0582C257.439 26.2144 257.751 26.3531 258.185 26.3531C258.601 26.3531 258.826 26.2317 258.826 26.0062C258.826 25.85 258.67 25.7633 258.323 25.7112L258.028 25.6765C257.386 25.5898 257.039 25.2949 257.039 24.8438C257.039 24.2713 257.508 23.9243 258.219 23.9243C258.67 23.9243 259.087 24.0284 259.382 24.2192L259.121 24.7223ZM266.755 24.4968C266.633 24.4968 266.512 24.5142 266.408 24.5662C266.304 24.6182 266.2 24.6703 266.13 24.757C266.061 24.8438 265.992 24.9305 265.94 25.052C265.887 25.1561 265.87 25.2949 265.87 25.4163C265.87 25.5551 265.887 25.6765 265.94 25.7806C265.992 25.8847 266.044 25.9888 266.13 26.0756C266.217 26.1623 266.304 26.2144 266.408 26.2664C266.512 26.3184 266.633 26.3358 266.755 26.3358C266.876 26.3358 266.998 26.3184 267.102 26.2664C267.206 26.2144 267.31 26.1623 267.379 26.0756C267.466 25.9888 267.518 25.9021 267.57 25.7806C267.622 25.6765 267.64 25.5377 267.64 25.4163C267.64 25.2775 267.622 25.1561 267.57 25.052C267.518 24.9479 267.466 24.8438 267.379 24.757C267.293 24.6703 267.206 24.6182 267.102 24.5662C266.998 24.5315 266.876 24.4968 266.755 24.4968ZM266.755 23.9243C266.98 23.9243 267.189 23.959 267.362 24.0457C267.553 24.1151 267.709 24.2192 267.848 24.358C267.987 24.4968 268.091 24.6529 268.178 24.8264C268.247 25.0173 268.299 25.2081 268.299 25.4163C268.299 25.6245 268.264 25.8327 268.178 26.0062C268.108 26.197 267.987 26.3531 267.848 26.4746C267.709 26.6134 267.553 26.7175 267.362 26.7869C267.171 26.8563 266.963 26.9083 266.755 26.9083C266.529 26.9083 266.321 26.8736 266.148 26.7869C265.957 26.7175 265.801 26.6134 265.662 26.4746C265.523 26.3358 265.419 26.1797 265.332 26.0062C265.263 25.8153 265.211 25.6245 265.211 25.4163C265.211 25.2081 265.246 24.9999 265.332 24.8264C265.402 24.6356 265.523 24.4795 265.662 24.358C265.801 24.2192 265.957 24.1151 266.148 24.0457C266.321 23.959 266.529 23.9243 266.755 23.9243ZM250.655 25.4163C250.655 24.9132 250.985 24.4968 251.523 24.4968C252.043 24.4968 252.373 24.8958 252.373 25.4163C252.373 25.9368 252.026 26.3184 251.523 26.3184C250.985 26.3184 250.655 25.9194 250.655 25.4163ZM252.962 25.4163V23.9937H252.338V24.3407C252.147 24.0804 251.852 23.9243 251.436 23.9243C250.638 23.9243 250.013 24.5489 250.013 25.4163C250.013 26.2837 250.638 26.9083 251.436 26.9083C251.835 26.9083 252.13 26.7522 252.338 26.4919V26.8389H252.962V25.4163ZM249.475 26.8389V25.052C249.475 24.3754 249.042 23.9243 248.348 23.9243C247.983 23.9243 247.602 24.0284 247.341 24.4274C247.151 24.1151 246.838 23.9243 246.405 23.9243C246.11 23.9243 245.797 24.011 245.572 24.3407V23.9937H244.947V26.8389H245.572V25.2602C245.572 24.7744 245.849 24.4968 246.266 24.4968C246.682 24.4968 246.89 24.757 246.89 25.2428V26.8216H247.515V25.2428C247.515 24.757 247.81 24.4795 248.209 24.4795C248.625 24.4795 248.833 24.7397 248.833 25.2255V26.8042H249.475V26.8389Z" fill="#EDEDED"/>
<path d="M268.958 26.6134V26.6828H269.027C269.044 26.6828 269.062 26.6828 269.062 26.6655C269.079 26.6655 269.079 26.6481 269.079 26.6308C269.079 26.6134 269.079 26.6134 269.062 26.6134C269.062 26.6134 269.044 26.5961 269.027 26.5961H268.958V26.6134ZM269.027 26.5787C269.062 26.5787 269.079 26.5787 269.097 26.5961C269.114 26.6134 269.131 26.6308 269.131 26.6655C269.131 26.6828 269.131 26.7002 269.114 26.7175C269.097 26.7349 269.079 26.7349 269.044 26.7349L269.131 26.839H269.062L268.975 26.7349H268.958V26.839H268.906V26.5787H269.027ZM269.01 26.9257C269.044 26.9257 269.062 26.9257 269.097 26.9084C269.131 26.891 269.149 26.8737 269.166 26.8563C269.183 26.839 269.201 26.8216 269.218 26.7869C269.235 26.7522 269.235 26.7349 269.235 26.7002C269.235 26.6655 269.235 26.6481 269.218 26.6134C269.201 26.5787 269.183 26.5614 269.166 26.544C269.149 26.5267 269.131 26.5094 269.097 26.492C269.079 26.4747 269.044 26.4747 269.01 26.4747C268.975 26.4747 268.958 26.4747 268.923 26.492C268.888 26.5094 268.871 26.5267 268.854 26.544C268.836 26.5614 268.819 26.5961 268.802 26.6134C268.784 26.6481 268.784 26.6655 268.784 26.7002C268.784 26.7349 268.784 26.7522 268.802 26.7869C268.819 26.8216 268.836 26.839 268.854 26.8563C268.871 26.8737 268.906 26.891 268.923 26.9084C268.958 26.9257 268.975 26.9257 269.01 26.9257ZM269.01 26.4226C269.044 26.4226 269.079 26.4226 269.114 26.44C269.149 26.4573 269.183 26.4747 269.201 26.492C269.218 26.5094 269.253 26.544 269.27 26.5787C269.287 26.6134 269.287 26.6481 269.287 26.6828C269.287 26.7175 269.287 26.7522 269.27 26.7869C269.253 26.8216 269.235 26.8563 269.201 26.8737C269.166 26.891 269.149 26.9257 269.114 26.9431C269.079 26.9604 269.044 26.9604 269.01 26.9604C268.975 26.9604 268.923 26.9604 268.888 26.9431C268.854 26.9257 268.819 26.9084 268.802 26.8737C268.784 26.8563 268.75 26.8216 268.732 26.7869C268.715 26.7522 268.715 26.7175 268.715 26.6828C268.715 26.6481 268.715 26.6134 268.732 26.5787C268.75 26.544 268.767 26.5094 268.802 26.492C268.819 26.4747 268.854 26.44 268.888 26.44C268.923 26.4226 268.975 26.4226 269.01 26.4226Z" fill="#EDEDED"/>
</svg>
